<svg preserveAspectRatio="none" width="100%" height="100%" overflow="visible" style="display: block;" viewBox="0 0 18 18" fill="none" xmlns="http://www.w3.org/2000/svg">
<g id="Frame">
<path id="Vector" d="M9 3.5625C9.41422 3.5625 9.75 3.22671 9.75 2.8125C9.75 2.39829 9.41422 2.0625 9 2.0625C8.58578 2.0625 8.25 2.39829 8.25 2.8125C8.25 3.22671 8.58578 3.5625 9 3.5625Z" fill="var(--fill-0, #F5F6F8)"/>
<path id="Vector_2" d="M9 9.75C9.41422 9.75 9.75 9.41422 9.75 9C9.75 8.58578 9.41422 8.25 9 8.25C8.58578 8.25 8.25 8.58578 8.25 9C8.25 9.41422 8.58578 9.75 9 9.75Z" fill="var(--fill-0, #F5F6F8)"/>
<path id="Vector_3" d="M9 15.9375C9.41422 15.9375 9.75 15.6017 9.75 15.1875C9.75 14.7733 9.41422 14.4375 9 14.4375C8.58578 14.4375 8.25 14.7733 8.25 15.1875C8.25 15.6017 8.58578 15.9375 9 15.9375Z" fill="var(--fill-0, #F5F6F8)"/>
<path id="Vector_4" d="M9 3.5625C9.41422 3.5625 9.75 3.22671 9.75 2.8125C9.75 2.39829 9.41422 2.0625 9 2.0625C8.58578 2.0625 8.25 2.39829 8.25 2.8125C8.25 3.22671 8.58578 3.5625 9 3.5625Z" stroke="var(--stroke-0, #F5F6F8)" stroke-width="1.125" stroke-linecap="round" stroke-linejoin="round"/>
<path id="Vector_5" d="M9 9.75C9.41422 9.75 9.75 9.41422 9.75 9C9.75 8.58578 9.41422 8.25 9 8.25C8.58578 8.25 8.25 8.58578 8.25 9C8.25 9.41422 8.58578 9.75 9 9.75Z" stroke="var(--stroke-0, #F5F6F8)" stroke-width="1.125" stroke-linecap="round" stroke-linejoin="round"/>
<path id="Vector_6" d="M9 15.9375C9.41422 15.9375 9.75 15.6017 9.75 15.1875C9.75 14.7733 9.41422 14.4375 9 14.4375C8.58578 14.4375 8.25 14.7733 8.25 15.1875C8.25 15.6017 8.58578 15.9375 9 15.9375Z" stroke="var(--stroke-0, #F5F6F8)" stroke-width="1.125" stroke-linecap="round" stroke-linejoin="round"/>
</g>
</svg>
